<svg xmlns="http://www.w3.org/2000/svg" viewBox="0 0 64 64" width="64" height="64" role="img">
  <defs>
    <linearGradient id="lg-promo-codes" x1="32" y1="3" x2="32" y2="61" gradientUnits="userSpaceOnUse">
      <stop stop-color="#fb923c"/><stop offset="1" stop-color="#ea580c"/>
    </linearGradient>
  </defs>
  <rect x="3" y="3" width="58" height="58" rx="15" fill="url(#lg-promo-codes)"/>
  <rect x="3" y="3" width="58" height="58" rx="15" fill="#fff" opacity=".08"/>
  <path fill="#fff" d="M16 27a3 3 0 0 1 3-3h26a3 3 0 0 1 3 3v3a3 3 0 0 0 0 6v1a3 3 0 0 1-3 3H19a3 3 0 0 1-3-3v-1a3 3 0 0 0 0-6v-3z"/><g stroke="#ea580c" stroke-width="2.6" stroke-linecap="round"><circle cx="27" cy="31" r="1.4" fill="#ea580c"/><circle cx="37" cy="37" r="1.4" fill="#ea580c"/><path d="M38 29 26 39"/></g>
</svg>
